<?xml version="1.0" encoding="UTF-8"?>
<svg width="1600px" height="150px" viewBox="0 0 1600 150" version="1.1" xmlns="http://www.w3.org/2000/svg" xmlns:xlink="http://www.w3.org/1999/xlink">
    <title>Clip Waves</title>
    <g id="Desktop" stroke="none" stroke-width="1" fill="none" fill-rule="evenodd">
        <path d="M2.27373675e-13,48.3123102 C47.2526058,39.8757818 86.9623358,35.6575176 119.12919,35.6575176 C178.250668,35.6575176 206.827687,48.0370982 280.432303,48.0370982 C367.079105,48.0370982 376.540461,35.6575176 458.684986,41.2972131 C506.645747,44.5899961 571.277749,53.0948639 660.91839,53.0948639 C710.843933,53.0948639 849.202679,35.6575176 913.373388,35.6575176 C1071.11616,35.6575176 1092.85843,33.5132008 1277.6238,53.0948639 C1314.26691,56.9783463 1427.93201,43.4008155 1534.45719,41.2972131 C1555.56953,40.8802979 1577.41713,43.1269263 1600,48.0370982 L1600,150 L2.27373675e-13,150 L2.27373675e-13,48.3123102 Z" id="Path" stroke="#000000"></path>
    </g>
</svg>