<svg id="green-waves" viewBox="0 0 1600 500" width="1600" height="500" xmlns="http://www.w3.org/2000/svg" xmlns:xlink="http://www.w3.org/1999/xlink" version="1.1"><rect x="0" y="0" width="1600" height="500" fill="#171717"></rect><path d="M0 291L53.3 293C106.7 295 213.3 299 320 294.2C426.7 289.3 533.3 275.7 640 265.8C746.7 256 853.3 250 960 260.8C1066.7 271.7 1173.3 299.3 1280 315.8C1386.7 332.3 1493.3 337.7 1546.7 340.3L1600 343L1600 501L1546.7 501C1493.3 501 1386.7 501 1280 501C1173.3 501 1066.7 501 960 501C853.3 501 746.7 501 640 501C533.3 501 426.7 501 320 501C213.3 501 106.7 501 53.3 501L0 501Z" fill="#009473"></path></svg>