<svg id="visual" viewBox="0 0 2400 600" width="2400" height="600" xmlns="http://www.w3.org/2000/svg" xmlns:xlink="http://www.w3.org/1999/xlink" version="1.1"><path d="M0 145L50 157C100 169 200 193 300 193C400 193 500 169 600 163C700 157 800 169 900 179C1000 189 1100 197 1200 189C1300 181 1400 157 1500 167C1600 177 1700 221 1800 223C1900 225 2000 185 2100 175C2200 165 2300 185 2350 195L2400 205L2400 0L2350 0C2300 0 2200 0 2100 0C2000 0 1900 0 1800 0C1700 0 1600 0 1500 0C1400 0 1300 0 1200 0C1100 0 1000 0 900 0C800 0 700 0 600 0C500 0 400 0 300 0C200 0 100 0 50 0L0 0Z" fill="#39748b"></path><path d="M0 241L50 257C100 273 200 305 300 302C400 299 500 261 600 253C700 245 800 267 900 289C1000 311 1100 333 1200 328C1300 323 1400 291 1500 291C1600 291 1700 323 1800 325C1900 327 2000 299 2100 298C2200 297 2300 323 2350 336L2400 349L2400 203L2350 193C2300 183 2200 163 2100 173C2000 183 1900 223 1800 221C1700 219 1600 175 1500 165C1400 155 1300 179 1200 187C1100 195 1000 187 900 177C800 167 700 155 600 161C500 167 400 191 300 191C200 191 100 167 50 155L0 143Z" fill="#225a70"></path><path d="M0 529L50 520C100 511 200 493 300 484C400 475 500 475 600 483C700 491 800 507 900 514C1000 521 1100 519 1200 517C1300 515 1400 513 1500 513C1600 513 1700 515 1800 508C1900 501 2000 485 2100 486C2200 487 2300 505 2350 514L2400 523L2400 347L2350 334C2300 321 2200 295 2100 296C2000 297 1900 325 1800 323C1700 321 1600 289 1500 289C1400 289 1300 321 1200 326C1100 331 1000 309 900 287C800 265 700 243 600 251C500 259 400 297 300 300C200 303 100 271 50 255L0 239Z" fill="#15475a"></path><path d="M0 601L50 601C100 601 200 601 300 601C400 601 500 601 600 601C700 601 800 601 900 601C1000 601 1100 601 1200 601C1300 601 1400 601 1500 601C1600 601 1700 601 1800 601C1900 601 2000 601 2100 601C2200 601 2300 601 2350 601L2400 601L2400 521L2350 512C2300 503 2200 485 2100 484C2000 483 1900 499 1800 506C1700 513 1600 511 1500 511C1400 511 1300 513 1200 515C1100 517 1000 519 900 512C800 505 700 489 600 481C500 473 400 473 300 482C200 491 100 509 50 518L0 527Z" fill="#123a49"></path></svg>