<svg id="visual" viewBox="0 0 2400 600" width="2400" height="600" xmlns="http://www.w3.org/2000/svg" xmlns:xlink="http://www.w3.org/1999/xlink" version="1.1"><path d="M0 501L50 497.3C100 493.7 200 486.3 300 476.7C400 467 500 455 600 457C700 459 800 475 900 487.2C1000 499.3 1100 507.7 1200 504C1300 500.3 1400 484.7 1500 470.7C1600 456.7 1700 444.3 1800 446.3C1900 448.3 2000 464.7 2100 476.8C2200 489 2300 497 2350 501L2400 505L2400 0L2350 0C2300 0 2200 0 2100 0C2000 0 1900 0 1800 0C1700 0 1600 0 1500 0C1400 0 1300 0 1200 0C1100 0 1000 0 900 0C800 0 700 0 600 0C500 0 400 0 300 0C200 0 100 0 50 0L0 0Z" fill="#184d63"></path><path d="M0 365L50 371C100 377 200 389 300 386.5C400 384 500 367 600 365C700 363 800 376 900 384C1000 392 1100 395 1200 397.3C1300 399.7 1400 401.3 1500 391.8C1600 382.3 1700 361.7 1800 357.7C1900 353.7 2000 366.3 2100 363.7C2200 361 2300 343 2350 334L2400 325L2400 0L2350 0C2300 0 2200 0 2100 0C2000 0 1900 0 1800 0C1700 0 1600 0 1500 0C1400 0 1300 0 1200 0C1100 0 1000 0 900 0C800 0 700 0 600 0C500 0 400 0 300 0C200 0 100 0 50 0L0 0Z" fill="#1b566c"></path><path d="M0 232L50 228C100 224 200 216 300 219C400 222 500 236 600 242.7C700 249.3 800 248.7 900 251.7C1000 254.7 1100 261.3 1200 256C1300 250.7 1400 233.3 1500 233.2C1600 233 1700 250 1800 247.8C1900 245.7 2000 224.3 2100 227C2200 229.7 2300 256.3 2350 269.7L2400 283L2400 0L2350 0C2300 0 2200 0 2100 0C2000 0 1900 0 1800 0C1700 0 1600 0 1500 0C1400 0 1300 0 1200 0C1100 0 1000 0 900 0C800 0 700 0 600 0C500 0 400 0 300 0C200 0 100 0 50 0L0 0Z" fill="#1e5f75"></path><path d="M0 98L50 94C100 90 200 82 300 81.2C400 80.3 500 86.7 600 97.5C700 108.3 800 123.7 900 126C1000 128.3 1100 117.7 1200 114C1300 110.3 1400 113.7 1500 123C1600 132.3 1700 147.7 1800 150.5C1900 153.3 2000 143.7 2100 130.3C2200 117 2300 100 2350 91.5L2400 83L2400 0L2350 0C2300 0 2200 0 2100 0C2000 0 1900 0 1800 0C1700 0 1600 0 1500 0C1400 0 1300 0 1200 0C1100 0 1000 0 900 0C800 0 700 0 600 0C500 0 400 0 300 0C200 0 100 0 50 0L0 0Z" fill="#21687e"></path></svg>