<svg id="visual" viewBox="0 0 2400 600" width="2400" height="600" xmlns="http://www.w3.org/2000/svg" xmlns:xlink="http://www.w3.org/1999/xlink" version="1.1"><path d="M0 440L50 436.5C100 433 200 426 300 421.3C400 416.7 500 414.3 600 427.8C700 441.3 800 470.7 900 476.2C1000 481.7 1100 463.3 1200 457.3C1300 451.3 1400 457.7 1500 455.2C1600 452.7 1700 441.3 1800 442.2C1900 443 2000 456 2100 467.2C2200 478.3 2300 487.7 2350 492.3L2400 497L2400 0L2350 0C2300 0 2200 0 2100 0C2000 0 1900 0 1800 0C1700 0 1600 0 1500 0C1400 0 1300 0 1200 0C1100 0 1000 0 900 0C800 0 700 0 600 0C500 0 400 0 300 0C200 0 100 0 50 0L0 0Z" fill="#184d63"></path><path d="M0 333L50 335.3C100 337.7 200 342.3 300 337.7C400 333 500 319 600 315.3C700 311.7 800 318.3 900 312C1000 305.7 1100 286.3 1200 281.8C1300 277.3 1400 287.7 1500 292.7C1600 297.7 1700 297.3 1800 304.2C1900 311 2000 325 2100 316C2200 307 2300 275 2350 259L2400 243L2400 0L2350 0C2300 0 2200 0 2100 0C2000 0 1900 0 1800 0C1700 0 1600 0 1500 0C1400 0 1300 0 1200 0C1100 0 1000 0 900 0C800 0 700 0 600 0C500 0 400 0 300 0C200 0 100 0 50 0L0 0Z" fill="#1c5a71"></path><path d="M0 188L50 176C100 164 200 140 300 138.7C400 137.3 500 158.7 600 163.7C700 168.7 800 157.3 900 160.3C1000 163.3 1100 180.7 1200 174C1300 167.3 1400 136.7 1500 126.8C1600 117 1700 128 1800 139C1900 150 2000 161 2100 171.7C2200 182.3 2300 192.7 2350 197.8L2400 203L2400 0L2350 0C2300 0 2200 0 2100 0C2000 0 1900 0 1800 0C1700 0 1600 0 1500 0C1400 0 1300 0 1200 0C1100 0 1000 0 900 0C800 0 700 0 600 0C500 0 400 0 300 0C200 0 100 0 50 0L0 0Z" fill="#21687e"></path></svg>