<svg id="visual" viewBox="0 0 2400 600" width="2400" height="600" xmlns="http://www.w3.org/2000/svg" xmlns:xlink="http://www.w3.org/1999/xlink" version="1.1"><path d="M0 139L44.5 135C89 131 178 123 266.8 115C355.7 107 444.3 99 533.2 91C622 83 711 75 800 81C889 87 978 107 1066.8 107C1155.7 107 1244.3 87 1333.2 75C1422 63 1511 59 1600 69C1689 79 1778 103 1866.8 100C1955.7 97 2044.3 67 2133.2 53C2222 39 2311 41 2355.5 42L2400 43L2400 0L2355.5 0C2311 0 2222 0 2133.2 0C2044.3 0 1955.7 0 1866.8 0C1778 0 1689 0 1600 0C1511 0 1422 0 1333.2 0C1244.3 0 1155.7 0 1066.8 0C978 0 889 0 800 0C711 0 622 0 533.2 0C444.3 0 355.7 0 266.8 0C178 0 89 0 44.5 0L0 0Z" fill="#39748b"></path><path d="M0 301L44.5 311C89 321 178 341 266.8 341C355.7 341 444.3 321 533.2 294C622 267 711 233 800 218C889 203 978 207 1066.8 236C1155.7 265 1244.3 319 1333.2 341C1422 363 1511 353 1600 356C1689 359 1778 375 1866.8 375C1955.7 375 2044.3 359 2133.2 334C2222 309 2311 275 2355.5 258L2400 241L2400 41L2355.5 40C2311 39 2222 37 2133.2 51C2044.3 65 1955.7 95 1866.8 98C1778 101 1689 77 1600 67C1511 57 1422 61 1333.2 73C1244.3 85 1155.7 105 1066.8 105C978 105 889 85 800 79C711 73 622 81 533.2 89C444.3 97 355.7 105 266.8 113C178 121 89 129 44.5 133L0 137Z" fill="#225a70"></path><path d="M0 523L44.5 515C89 507 178 491 266.8 477C355.7 463 444.3 451 533.2 439C622 427 711 415 800 431C889 447 978 491 1066.8 511C1155.7 531 1244.3 527 1333.2 524C1422 521 1511 519 1600 513C1689 507 1778 497 1866.8 495C1955.7 493 2044.3 499 2133.2 489C2222 479 2311 453 2355.5 440L2400 427L2400 239L2355.5 256C2311 273 2222 307 2133.2 332C2044.3 357 1955.7 373 1866.8 373C1778 373 1689 357 1600 354C1511 351 1422 361 1333.2 339C1244.3 317 1155.7 263 1066.8 234C978 205 889 201 800 216C711 231 622 265 533.2 292C444.3 319 355.7 339 266.8 339C178 339 89 319 44.5 309L0 299Z" fill="#15475a"></path><path d="M0 601L44.5 601C89 601 178 601 266.8 601C355.7 601 444.3 601 533.2 601C622 601 711 601 800 601C889 601 978 601 1066.8 601C1155.7 601 1244.3 601 1333.2 601C1422 601 1511 601 1600 601C1689 601 1778 601 1866.8 601C1955.7 601 2044.3 601 2133.2 601C2222 601 2311 601 2355.5 601L2400 601L2400 425L2355.5 438C2311 451 2222 477 2133.2 487C2044.3 497 1955.7 491 1866.8 493C1778 495 1689 505 1600 511C1511 517 1422 519 1333.2 522C1244.3 525 1155.7 529 1066.8 509C978 489 889 445 800 429C711 413 622 425 533.2 437C444.3 449 355.7 461 266.8 475C178 489 89 505 44.5 513L0 521Z" fill="#123a49"></path></svg>