<svg id="visual" viewBox="0 0 2400 600" width="2400" height="600" xmlns="http://www.w3.org/2000/svg" xmlns:xlink="http://www.w3.org/1999/xlink" version="1.1"><path d="M0 103L44.5 97C89 91 178 79 266.8 86C355.7 93 444.3 119 533.2 129C622 139 711 133 800 118C889 103 978 79 1066.8 66C1155.7 53 1244.3 51 1333.2 62C1422 73 1511 97 1600 98C1689 99 1778 77 1866.8 63C1955.7 49 2044.3 43 2133.2 42C2222 41 2311 45 2355.5 47L2400 49L2400 0L2355.5 0C2311 0 2222 0 2133.2 0C2044.3 0 1955.7 0 1866.8 0C1778 0 1689 0 1600 0C1511 0 1422 0 1333.2 0C1244.3 0 1155.7 0 1066.8 0C978 0 889 0 800 0C711 0 622 0 533.2 0C444.3 0 355.7 0 266.8 0C178 0 89 0 44.5 0L0 0Z" fill="#39748b"></path><path d="M0 325L44.5 316C89 307 178 289 266.8 283C355.7 277 444.3 283 533.2 309C622 335 711 381 800 373C889 365 978 303 1066.8 279C1155.7 255 1244.3 269 1333.2 284C1422 299 1511 315 1600 292C1689 269 1778 207 1866.8 222C1955.7 237 2044.3 329 2133.2 330C2222 331 2311 241 2355.5 196L2400 151L2400 47L2355.5 45C2311 43 2222 39 2133.2 40C2044.3 41 1955.7 47 1866.8 61C1778 75 1689 97 1600 96C1511 95 1422 71 1333.2 60C1244.3 49 1155.7 51 1066.8 64C978 77 889 101 800 116C711 131 622 137 533.2 127C444.3 117 355.7 91 266.8 84C178 77 89 89 44.5 95L0 101Z" fill="#225a70"></path><path d="M0 373L44.5 384C89 395 178 417 266.8 414C355.7 411 444.3 383 533.2 390C622 397 711 439 800 454C889 469 978 457 1066.8 456C1155.7 455 1244.3 465 1333.2 469C1422 473 1511 471 1600 450C1689 429 1778 389 1866.8 391C1955.7 393 2044.3 437 2133.2 431C2222 425 2311 369 2355.5 341L2400 313L2400 149L2355.5 194C2311 239 2222 329 2133.2 328C2044.3 327 1955.7 235 1866.8 220C1778 205 1689 267 1600 290C1511 313 1422 297 1333.2 282C1244.3 267 1155.7 253 1066.8 277C978 301 889 363 800 371C711 379 622 333 533.2 307C444.3 281 355.7 275 266.8 281C178 287 89 305 44.5 314L0 323Z" fill="#15475a"></path><path d="M0 601L44.5 601C89 601 178 601 266.8 601C355.7 601 444.3 601 533.2 601C622 601 711 601 800 601C889 601 978 601 1066.8 601C1155.7 601 1244.3 601 1333.2 601C1422 601 1511 601 1600 601C1689 601 1778 601 1866.8 601C1955.7 601 2044.3 601 2133.2 601C2222 601 2311 601 2355.5 601L2400 601L2400 311L2355.5 339C2311 367 2222 423 2133.2 429C2044.3 435 1955.7 391 1866.8 389C1778 387 1689 427 1600 448C1511 469 1422 471 1333.2 467C1244.3 463 1155.7 453 1066.8 454C978 455 889 467 800 452C711 437 622 395 533.2 388C444.3 381 355.7 409 266.8 412C178 415 89 393 44.5 382L0 371Z" fill="#123a49"></path></svg>