<?xml version="1.0" encoding="UTF-8"?>
<svg width="1200px" height="1200px" viewBox="0 0 1200 1200" version="1.1" xmlns="http://www.w3.org/2000/svg" xmlns:xlink="http://www.w3.org/1999/xlink">
    <title>S Logo</title>
    <defs>
        <path d="M793.996212,0.872263795 C847.584304,-5.60915919 886.613569,24.443056 893.196772,77.2553793 L948.113252,517.822019 C954.69626,570.634343 924.20675,609.094681 870.61866,615.575911 L155.003788,702.127779 C101.415697,708.609009 62.386235,678.556987 55.8032282,625.744666 L0.886747892,185.177832 C-5.69625883,132.365509 24.7932504,93.9053627 78.3813413,87.4239397 L793.996212,0.872263795 Z" id="path-1"></path>
        <path d="M901.08953,0.990100695 C961.905485,-6.36702619 1006.1992,27.7461302 1013.67012,87.6951691 L1075.99365,587.798084 C1083.46456,647.74712 1048.86278,691.404731 988.046828,698.761859 L175.910471,797.009857 C115.094516,804.367175 70.8007968,770.253826 63.329883,710.304787 L1.00635393,210.201874 C-6.46455971,150.252835 28.1372162,106.595225 88.9531709,99.238098 L901.08953,0.990100695 Z" id="path-3"></path>
        <path d="M978.062673,1.07325095 C1044.07388,-6.90167455 1092.15111,30.0756976 1100.26039,95.0582647 L1167.90764,637.149545 C1176.01691,702.131918 1138.45941,749.454978 1072.4482,757.429905 L190.937278,863.926749 C124.926072,871.901675 76.84884,834.924302 68.7397626,769.941929 L1.09231516,227.850648 C-7.01676218,162.868081 30.5407397,115.545021 96.5517497,107.570096 L978.062673,1.07325095 Z" id="path-5"></path>
        <path d="M54.6491098,96.1559775 C27.9823846,99.3709081 3.68313891,80.5319702 0.37515357,54.0779815 C-2.93283177,27.6237997 16.0030748,3.57242049 42.6696036,0.357296835 C69.3363288,-2.85763383 93.6355744,15.981304 96.9435599,42.4352928 C100.251545,68.8892818 81.3156386,92.9408539 54.6491098,96.1559775 Z" id="path-7"></path>
        <path d="M54.6490882,96.1559775 C27.9823733,99.3709081 3.68313738,80.5319702 0.375153335,54.0779815 C-2.9328307,27.6237997 16.0030684,3.57242049 42.6697832,0.357296835 C69.3363015,-2.85763383 93.6355376,15.981304 96.9435217,42.4352928 C100.251702,68.8894748 81.3156065,92.9408539 54.6490882,96.1559775 Z" id="path-9"></path>
        <path d="M54.6489996,96.1559769 C27.9825246,99.3709127 3.68332794,80.5319449 0.375152726,54.0779142 C-2.93282594,27.6238835 16.0030424,3.57227318 42.669714,0.35733743 C69.3363853,-2.85779132 93.6355819,15.9811764 96.9435607,42.4354001 C100.251539,68.889431 81.315671,92.9410412 54.6489996,96.1559769 Z" id="path-11"></path>
    </defs>
    <g id="S-Logo" stroke="none" stroke-width="1" fill="none" fill-rule="evenodd">
        <g id="Desktop" transform="translate(16.000000, 160.000000)">
            <g id="Screen-Bottom" transform="translate(123.000000, 306.000000)">
                <mask id="mask-2" fill="white">
                    <use xlink:href="#path-1"></use>
                </mask>
                <g id="path-7"></g>
                <polygon id="Fill-9" fill-opacity="0.259151005" fill="#07423B" fill-rule="nonzero" mask="url(#mask-2)" points="-20.8769829 89.7124879 890.868174 -20.5608142 969.876985 613.287364 58.1318256 723.560667"></polygon>
            </g>
            <g id="Screen-Middle" transform="translate(52.000000, 149.000000)">
                <mask id="mask-4" fill="white">
                    <use xlink:href="#path-3"></use>
                </mask>
                <g id="path-9"></g>
                <polygon id="Fill-12" fill-opacity="0.527234484" fill="#07423B" fill-rule="nonzero" mask="url(#mask-4)" points="-22.2200857 102.969613 1009.87671 -21.8880002 1099.22009 695.030344 67.1232935 819.887957"></polygon>
            </g>
            <g id="Screen-Top">
                <mask id="mask-6" fill="white">
                    <use xlink:href="#path-5"></use>
                </mask>
                <g id="path-11"></g>
                <polygon id="Fill-15" fill="#07423B" fill-rule="nonzero" mask="url(#mask-6)" points="-23.1982445 112.322227 1095.42399 -22.8204759 1192.19822 752.677966 73.5759651 887.820476"></polygon>
            </g>
            <g id="Top-Bar" transform="translate(59.000000, 124.000000)">
                <g id="Button-Red" transform="translate(0.000000, 36.486726)">
                    <mask id="mask-8" fill="white">
                        <use xlink:href="#path-7"></use>
                    </mask>
                    <g id="path-13"></g>
                    <polygon id="Fill-19" fill="#FF6059" fill-rule="nonzero" mask="url(#mask-8)" points="-16.5667238 -2.22325533 99.5105407 -16.2177956 113.885241 98.7365297 -2.19182733 112.73107"></polygon>
                </g>
                <g id="Button-Yellow" transform="translate(151.254386, 18.831858)">
                    <mask id="mask-10" fill="white">
                        <use xlink:href="#path-9"></use>
                    </mask>
                    <g id="path-15"></g>
                    <polygon id="Fill-22" fill="#FFBD2E" fill-rule="nonzero" mask="url(#mask-10)" points="-16.5665208 -2.22325533 99.5106982 -16.2177956 113.885392 98.7365297 -2.19182655 112.73107"></polygon>
                </g>
                <g id="Button-Green" transform="translate(303.681287, 0.000000)">
                    <mask id="mask-12" fill="white">
                        <use xlink:href="#path-11"></use>
                    </mask>
                    <g id="path-17"></g>
                    <polygon id="Fill-25" fill="#28CA42" fill-rule="nonzero" mask="url(#mask-12)" points="-16.5664939 -2.22341182 99.5105364 -16.2179743 113.885207 98.7365333 -2.191823 112.731096"></polygon>
                </g>
            </g>
        </g>
        <text id="Text" opacity="0.969999969" transform="translate(578.647220, 664.141169) rotate(-7.000000) translate(-578.647220, -664.141169) " font-family="Helvetica-Bold, Helvetica" font-size="600" font-weight="bold" letter-spacing="-30" fill="#FFFFFF">
            <tspan x="402.658848" y="896.510937">S</tspan>
        </text>
    </g>
</svg>